<svg xmlns="http://www.w3.org/2000/svg" viewBox="0 0 1200 600" fill="none">
  <defs>
    <linearGradient id="ocean" x1="0" y1="0" x2="0" y2="1">
      <stop offset="0%" stop-color="#0b1f31"/>
      <stop offset="100%" stop-color="#071729"/>
    </linearGradient>
    <linearGradient id="land" x1="0" y1="0" x2="1" y2="1">
      <stop offset="0%" stop-color="#2f5569"/>
      <stop offset="100%" stop-color="#234658"/>
    </linearGradient>
  </defs>

  <rect width="1200" height="600" fill="url(#ocean)"/>

  <g opacity="0.42" stroke="#56b8d4" stroke-width="1">
    <path d="M0 120H1200"/><path d="M0 240H1200"/><path d="M0 360H1200"/><path d="M0 480H1200"/>
    <path d="M200 0V600"/><path d="M400 0V600"/><path d="M600 0V600"/><path d="M800 0V600"/><path d="M1000 0V600"/>
  </g>

  <g fill="url(#land)" stroke="#66d3f1" stroke-opacity="0.22" stroke-width="2">
    <path d="M130 170L165 140L220 130L280 130L320 155L338 205L320 242L278 268L232 296L190 312L165 286L142 252L125 210Z"/>
    <path d="M262 326L295 347L316 384L305 430L286 476L258 505L235 476L225 430L231 390Z"/>
    <path d="M468 175L507 155L555 157L590 177L612 208L593 230L560 238L522 225L488 205Z"/>
    <path d="M520 247L562 250L600 272L620 318L607 365L575 404L540 422L512 386L500 342L507 292Z"/>
    <path d="M598 178L642 153L700 147L771 160L833 180L902 205L947 243L938 286L900 315L842 324L785 318L748 295L712 285L673 270L646 246L622 228Z"/>
    <path d="M875 373L922 388L948 418L936 450L906 466L871 452L852 420Z"/>
    <path d="M1048 430L1072 422L1096 434L1096 458L1075 474L1048 468L1038 448Z"/>
  </g>

  <ellipse cx="600" cy="300" rx="564" ry="257" stroke="#7ed7f4" stroke-opacity="0.2" stroke-width="2"/>
</svg>
